<!-- icon666.com - MILLIONS vector ICONS FREE --><svg id="Layer_1" enable-background="new 0 0 510 510" viewBox="0 0 510 510" xmlns="http://www.w3.org/2000/svg"><g><path d="m0 510h390v-510h-390zm30-480h330v450h-330z"></path><path d="m465 30c-24.814 0-45 20.187-45 45v330c0 19.555 12.541 36.228 30 42.42v32.58h30v-32.58c17.459-6.192 30-22.865 30-42.42 0-14.447 0-296.347 0-315v-15c0-24.813-20.186-45-45-45zm-15 240h30v30h-30zm15 150c-8.272 0-15-6.729-15-15v-75h30v75c0 8.271-6.728 15-15 15zm15-180h-30v-120h30zm-30-150v-15c0-8.271 6.728-15 15-15s15 6.729 15 15v15z"></path><path d="m292.527 397.502-15.279-31.75-37.553 32.759c-9.381-5.296-20.248-7.604-31.26-6.449l3.129 29.836c6.803-.707 13.457 1.645 18.279 6.466l9.908 9.908 27.541-24.025 16.541 34.374 46.772-46.773-21.213-21.213z"></path><path d="m75 75h240v30h-240z"></path><path d="m75 135h240v30h-240z"></path><path d="m75 195h240v30h-240z"></path><path d="m75 255h240v30h-240z"></path><path d="m75 315h120v30h-120z"></path></g></svg>