<!-- icon666.com - MILLIONS vector ICONS FREE --><svg id="Artboard_30" viewBox="0 0 64 64" xmlns="http://www.w3.org/2000/svg" data-name="Artboard 30"><path d="m47 27h-2v-10a2 2 0 0 0 -2-2h-4a2 2 0 0 0 -2 2v10h-2v-17a1.009 1.009 0 0 0 -.063-.352l-3-8a1 1 0 0 0 -1.874 0l-3 8a1.009 1.009 0 0 0 -.063.352v17h-2v-16a3 3 0 0 0 -6 0v16h-2a2 2 0 0 0 -2 2v2a2 2 0 0 0 2 2h1.1l2.91 29.1a1 1 0 0 0 1 .9h19.99a1 1 0 0 0 1-.9l2.905-29.1h1.095a2 2 0 0 0 2-2v-2a2 2 0 0 0 -2-2zm-4-10v2h-4v-2zm-4 4h4v6h-4zm-8-16.152 1.557 4.152h-3.114zm-2 6.152h4v16h-4zm-7-1a1 1 0 0 1 1 1v2h-2v-2a1 1 0 0 1 1-1zm-1 5h2v12h-2zm20.1 46h-18.195l-2.8-28h23.795zm-24.1-30v-2h30v2z"></path></svg>