<!-- icon666.com - MILLIONS vector ICONS FREE --><svg version="1.1" id="Capa_1" xmlns="http://www.w3.org/2000/svg" xmlns:xlink="http://www.w3.org/1999/xlink" x="0px" y="0px" viewBox="0 0 185.243 185.243" style="enable-background:new 0 0 185.243 185.243;" xml:space="preserve"><g><path d="M92.622,27.818c-24.602,0-44.617,20.016-44.617,44.618s20.016,44.618,44.617,44.618s44.617-20.016,44.617-44.618 S117.223,27.818,92.622,27.818z M92.622,107.053c-19.088,0-34.617-15.529-34.617-34.618s15.529-34.618,34.617-34.618 s34.617,15.529,34.617,34.618S111.709,107.053,92.622,107.053z"></path><path d="M92.622,0C51.369,0,17.807,33.562,17.807,74.814c0,17.161,11.875,40.74,35.295,70.084 c16.924,21.204,33.578,37.525,34.279,38.21c1.457,1.423,3.349,2.135,5.24,2.135s3.783-0.711,5.24-2.135 c0.701-0.685,17.355-17.006,34.279-38.21c23.42-29.344,35.295-52.923,35.295-70.084C167.436,33.562,133.875,0,92.622,0z M92.622,167.112c-20.559-21.154-59.814-66.807-59.814-92.297C32.807,41.833,59.64,15,92.622,15s59.814,26.833,59.814,59.814 C152.436,100.305,113.18,145.958,92.622,167.112z"></path></g></svg>