<?xml version="1.0" encoding="utf-8"?>
<!-- Generator: Adobe Illustrator 27.8.1, SVG Export Plug-In . SVG Version: 6.00 Build 0)  -->
<svg version="1.1" id="Layer_1" xmlns="http://www.w3.org/2000/svg" xmlns:xlink="http://www.w3.org/1999/xlink" x="0px" y="0px"
	 viewBox="0 0 250 175" style="enable-background:new 0 0 250 175;" xml:space="preserve">
<style type="text/css">
	.st0{fill:#FFFFFF;}
</style>
<g id="XMLID_236_">
	<g id="XMLID_00000108991676828109559480000015293916025064159423_">
		<path class="st0" d="M137.5,175h-125C5.6,175,0,169.4,0,162.5v0c0-6.9,5.6-12.5,12.5-12.5h125c6.9,0,12.5,5.6,12.5,12.5v0
			C150,169.4,144.4,175,137.5,175z"/>
		<path class="st0" d="M237.5,97.6h-225C5.6,97.6,0,92,0,85.1v0c0-6.9,5.6-12.5,12.5-12.5h225c6.9,0,12.5,5.6,12.5,12.5v0
			C250,92,244.4,97.6,237.5,97.6z"/>
		<path class="st0" d="M237.5,25h-225C5.6,25,0,19.4,0,12.5v0C0,5.6,5.6,0,12.5,0l225,0c6.9,0,12.5,5.6,12.5,12.5v0
			C250,19.4,244.4,25,237.5,25z"/>
	</g>
</g>
</svg>
