<!-- icon666.com - MILLIONS vector ICONS FREE --><svg version="1.1" id="Layer_1" xmlns="http://www.w3.org/2000/svg" xmlns:xlink="http://www.w3.org/1999/xlink" x="0px" y="0px" viewBox="0 0 330 330" style="enable-background:new 0 0 330 330;" xml:space="preserve"><g id="XMLID_236_"><path id="XMLID_237_" d="M15,120h300c8.284,0,15-6.716,15-15s-6.716-15-15-15H15c-8.284,0-15,6.716-15,15S6.716,120,15,120z" fill="#000000" style="fill: rgb(255, 255, 255);"></path><path id="XMLID_238_" d="M315,150H15c-8.284,0-15,6.716-15,15s6.716,15,15,15h300c8.284,0,15-6.716,15-15S323.284,150,315,150z" fill="#000000" style="fill: rgb(255, 255, 255);"></path><path id="XMLID_239_" d="M315,210H15c-8.284,0-15,6.716-15,15s6.716,15,15,15h300c8.284,0,15-6.716,15-15S323.284,210,315,210z" fill="#000000" style="fill: rgb(255, 255, 255);"></path></g></svg>