<!-- icon666.com - MILLIONS vector ICONS FREE --><svg id="Capa_1" enable-background="new 0 0 512 512" viewBox="0 0 512 512" xmlns="http://www.w3.org/2000/svg"><g id="Price_Compare"><g><circle cx="100" cy="260" r="20"></circle></g><g><circle cx="412" cy="260" r="20"></circle></g><g><path d="m494.427 217.574-40-40c-6.439-6.439-14.085-11.229-22.427-14.17v-43.404h20c11.046 0 20-8.954 20-20s-8.954-20-20-20h-60c-10.173 0-19.838-3.808-27.264-10.73l-39.779-41.691c-18.672-17.785-43.162-27.579-68.957-27.579-25.794 0-50.284 9.794-68.957 27.578l-39.779 41.692c-7.427 6.922-17.091 10.73-27.264 10.73h-60c-11.046 0-20 8.954-20 20s8.954 20 20 20h20v43.404c-8.341 2.941-15.988 7.73-22.426 14.169l-40 40c-11.333 11.332-17.574 26.4-17.574 42.427v112c0 33.084 26.916 60 60 60h80c33.084 0 60-26.916 60-60v-112c0-16.027-6.241-31.095-17.574-42.426l-40-40c-6.439-6.439-14.085-11.229-22.427-14.17v-43.404c20.636 0 40.228-7.835 55.166-22.062.233-.222.461-.45.683-.683l39.106-41.019c11.161-10.474 25.718-16.236 41.046-16.236 15.327 0 29.885 5.762 41.044 16.234 0 0 39.557 41.481 39.79 41.703 14.938 14.228 34.53 22.063 55.166 22.063v43.404c-8.341 2.941-15.988 7.73-22.427 14.169l-40 40c-11.332 11.333-17.573 26.401-17.573 42.427v112c0 33.084 26.916 60 60 60h80c33.084 0 60-26.916 60-60v-112c0-16.026-6.241-31.094-17.573-42.426zm-340.284 28.284c3.777 3.777 5.857 8.8 5.857 14.142v112c0 11.028-8.972 20-20 20h-80c-11.028 0-20-8.972-20-20v-112c0-5.342 2.08-10.365 5.858-14.142l40-40c3.777-3.778 8.8-5.858 14.142-5.858s10.365 2.08 14.142 5.858zm317.857 126.142c0 11.028-8.972 20-20 20h-80c-11.028 0-20-8.972-20-20v-112c0-5.342 2.08-10.364 5.858-14.142l40-40c3.778-3.778 8.799-5.858 14.142-5.858s10.364 2.08 14.142 5.858l40 40c3.778 3.778 5.858 8.8 5.858 14.142z"></path><path d="m376 472h-100v-372c0-11.046-8.954-20-20-20s-20 8.954-20 20v372h-100c-11.046 0-20 8.954-20 20s8.954 20 20 20h240c11.046 0 20-8.954 20-20s-8.954-20-20-20z"></path></g></g></svg>