<?xml version="1.0" encoding="utf-8"?>
<!-- Generator: Adobe Illustrator 27.8.1, SVG Export Plug-In . SVG Version: 6.00 Build 0)  -->
<svg version="1.1" id="Capa_1" xmlns="http://www.w3.org/2000/svg" xmlns:xlink="http://www.w3.org/1999/xlink" x="0px" y="0px"
	 viewBox="0 0 284.9 166.8" style="enable-background:new 0 0 284.9 166.8;" xml:space="preserve">
<g>
	<path d="M284.9,142.5c0-2.5-0.9-4.7-2.8-6.6L149,2.9C147.1,1,144.9,0,142.5,0s-4.7,1-6.6,2.9l-133,133C1,137.8,0,140,0,142.5
		c0,2.5,0.9,4.7,2.9,6.6l14.3,14.3c1.9,1.9,4.1,2.9,6.6,2.9c2.5,0,4.7-1,6.6-2.9L142.5,51.1l112.2,112.2c1.9,1.9,4.1,2.9,6.6,2.9
		c2.5,0,4.7-0.9,6.6-2.9l14.3-14.3C284,147.1,284.9,144.9,284.9,142.5z"/>
</g>
</svg>
